<?xml version="1.0" encoding="utf-8"?>
<!-- Generator: Adobe Illustrator 19.0.0, SVG Export Plug-In . SVG Version: 6.00 Build 0)  -->
<svg version="1.1" id="Layer_1" xmlns="http://www.w3.org/2000/svg" xmlns:xlink="http://www.w3.org/1999/xlink" x="0px" y="0px"
	 viewBox="0 0 25 25" enable-background="new 0 0 25 25" xml:space="preserve">
<path id="XMLID_2_" fill="#00F69B" d="M10.8,8.9c-0.2-0.6-0.7-0.8-1.2-0.7C9.1,8.3,8.7,8.8,8.8,9.3C9,9.8,9.5,10.2,10,10.4
	C10.5,9.9,10.9,9.4,10.8,8.9 M14.3,9.2c0.1-0.2,0-0.4-0.1-0.5l-0.6-0.3l0.3-0.6c0.1-0.2,0-0.4-0.1-0.5c-0.2-0.1-0.4,0-0.5,0.1
	l-0.3,0.6l-0.6-0.3c-0.2-0.1-0.4,0-0.5,0.1c-0.1,0.2,0,0.4,0.1,0.5l0.6,0.3l-0.3,0.6c-0.1,0.2,0,0.4,0.1,0.5c0.2,0.1,0.4,0,0.5-0.1
	L13.2,9l0.6,0.3C14,9.4,14.2,9.4,14.3,9.2 M19.6,16.7c0.2,0.2,0.3,0.6,0.3,0.9c-0.1,0.6-0.7,1.1-1.3,1c-0.6-0.1-1.1-0.7-1-1.3
	c0,0,0,0,0,0l-3.8-0.5l-3,2.4c0.3,0.5,0.2,1.1-0.3,1.5C10.1,21.1,9.4,21,9,20.5c0,0-0.1-0.1-0.1-0.1c-0.3,0-0.7-0.1-0.9-0.4
	c-0.4-0.5-0.3-1.2,0.2-1.6C8.7,18,9.4,18,9.8,18.5c0,0,0,0,0,0l2.5-2l-2.8-0.4c0,0,0,0,0,0.1c-0.1,0.6-0.7,1.1-1.3,1
	c-0.6-0.1-1.1-0.7-1-1.3c0-0.1,0-0.1,0-0.2C7.1,15.6,7,15.2,7,14.9c0.1-0.6,0.7-1.1,1.3-1c0.6,0.1,1,0.6,1,1.1l4.3,0.6l2.7-2.1
	c0,0,0,0,0,0c-0.4-0.5-0.3-1.2,0.2-1.6c0.5-0.4,1.2-0.3,1.6,0.2c0,0,0.1,0.1,0.1,0.1c0.3,0,0.7,0.1,0.9,0.4c0.4,0.5,0.3,1.2-0.2,1.6
	c-0.5,0.4-1.1,0.3-1.5-0.1l-2.2,1.7l2.3,0.3c0.1-0.6,0.7-0.9,1.3-0.9c0.6,0.1,1.1,0.7,1,1.3C19.7,16.6,19.7,16.6,19.6,16.7
	 M15.1,10.7l0.1,0.2c0.2,0.6-0.1,1.2-0.6,1.8l-0.3-1c0-0.1-0.1-0.1-0.2-0.1c-0.1,0-0.2,0.1-0.2,0.2l0.3,1.2
	c-0.1,0.1-0.3,0.2-0.5,0.3l-0.3-1.2c0-0.1-0.1-0.1-0.2-0.1c-0.1,0-0.2,0.1-0.2,0.2l0.3,1.3c-0.2,0.1-0.3,0.1-0.5,0.2l-0.3-1.2
	c0-0.1-0.1-0.1-0.2-0.1c-0.1,0-0.2,0.1-0.2,0.2l0.3,1.2c-0.2,0-0.4,0.1-0.6,0.1l-0.3-1.3c0-0.1-0.1-0.1-0.2-0.1
	c-0.1,0-0.2,0.1-0.2,0.2l0.3,1.2c-0.2,0-0.4,0-0.6-0.1l-0.3-1.2c0-0.1-0.1-0.1-0.2-0.1c-0.1,0-0.2,0.1-0.2,0.2l0.3,1
	c-0.7-0.2-1.2-0.7-1.4-1.3L9.1,12c-1-0.5-1.8-1.4-2.1-2.5C6.4,7.3,8,5,10.4,4.3C12.9,3.7,15.4,5,16,7.2C16.3,8.4,15.9,9.7,15.1,10.7
	 M24.2,10.7c-0.4-3.1-2.1-5.9-4.7-7.8C17,1,14,0.2,10.9,0.6C7.7,1.1,5,2.6,3,5.2c-1.9,2.5-2.8,5.6-2.3,8.8c0.5,3.4,2,6.1,4.4,8
	c2.6,2.1,5.6,2.9,9,2.4c3.2-0.4,6-2.1,7.9-4.8C24,17.1,24.7,14,24.2,10.7"/>
</svg>
